# xmcd CD database file
#
# Track frame offsets:
#	187
#	10247
#	22490
#	34025
#	46225
#	57205
#	71750
#	87100
#	99445
#	112825
#	123590
#	136452
#	150575
#	160920
#	171315
#	183675
#	201427
#	213475
#	223760
#	235220
#
# Disc length: 3295 seconds
#
# Revision: 0
# Processed by: cddbd v1.4PL0 Copyright (c) Steve Scherf et al.
# Submitted via: CDex 1.50
#
DISCID=240cdd14
DTITLE=Various Artist - Treasury of Country Inspirational Favourites 4
DYEAR=1900
DGENRE=Country
TTITLE0=Jimmy Dean - Just a Little Talk With Jesus
TTITLE1=Loretta Lynn - I'd rather Have Jesus
TTITLE2=Nat Stuckey and Connie Smith - His Love Takes Care of me
TTITLE3=Jim Reeves - We Thank Thee
TTITLE4=Barbara Mandrell - I'm Yours, Lord
TTITLE5=Tennessee Ernie Ford - Take My Hand, Precious Lord
TTITLE6=Patti Page - What a Friend We Have In Jesus
TTITLE7=Hank Willams Jr - I Saw The Light
TTITLE8=Hank Snow - He'll Understand and Say Well Done
TTITLE9=Tony Fontane - I Found The Answer
TTITLE10=Eddy Arnold - The Unclouded Day
TTITLE11=Jimmy Dean - Peace in the Valley
TTITLE12=Blackwood Brothers and Porter Wagoner - God Walks These Hills With Me
TTITLE13=Sonny James - Till The Last Leaf Shall Fall
TTITLE14=Browns - In The Garden
TTITLE15=Barbara Mandrell - He Grew The Tree
TTITLE16=Ernest Tubb - The Great Speckled Bird
TTITLE17=Jim Reeves - The Flowers, The Sunset, The Trees
TTITLE18=Jimmie Davis and The Anita Kerr Singers - Lily of the Valley
TTITLE19=Mac Wiseman - The Beautiful Garden of Prayer
EXTD=
EXTT0=
EXTT1=
EXTT2=
EXTT3=
EXTT4=
EXTT5=
EXTT6=
EXTT7=
EXTT8=
EXTT9=
EXTT10=
EXTT11=
EXTT12=
EXTT13=
EXTT14=
EXTT15=
EXTT16=
EXTT17=
EXTT18=
EXTT19=
PLAYORDER=
